<?xml version="1.0" encoding="UTF-8" standalone="no"?>
<!-- Created with Inkscape (http://www.inkscape.org/) -->

<svg
   xmlns:dc="http://purl.org/dc/elements/1.1/"
   xmlns:cc="http://creativecommons.org/ns#"
   xmlns:rdf="http://www.w3.org/1999/02/22-rdf-syntax-ns#"
   xmlns:svg="http://www.w3.org/2000/svg"
   xmlns="http://www.w3.org/2000/svg"
   xmlns:sodipodi="http://sodipodi.sourceforge.net/DTD/sodipodi-0.dtd"
   xmlns:inkscape="http://www.inkscape.org/namespaces/inkscape"
   width="654.33032"
   height="622.67383"
   id="svg2"
   version="1.1"
   inkscape:version="0.48.5 r10040"
   sodipodi:docname="mastro-elfo-logo.svg">
  <defs
     id="defs4" />
  <sodipodi:namedview
     id="base"
     pagecolor="#ffffff"
     bordercolor="#666666"
     borderopacity="1.0"
     inkscape:pageopacity="0.0"
     inkscape:pageshadow="2"
     inkscape:zoom="0.7"
     inkscape:cx="230.14448"
     inkscape:cy="356.64111"
     inkscape:document-units="px"
     inkscape:current-layer="layer1"
     showgrid="false"
     inkscape:snap-center="true"
     inkscape:object-paths="false"
     inkscape:object-nodes="true"
     inkscape:snap-smooth-nodes="true"
     showguides="true"
     inkscape:guide-bbox="true"
     fit-margin-top="0"
     fit-margin-left="0"
     fit-margin-right="0"
     fit-margin-bottom="0"
     inkscape:window-width="1285"
     inkscape:window-height="744"
     inkscape:window-x="81"
     inkscape:window-y="24"
     inkscape:window-maximized="1" />
  <metadata
     id="metadata7">
    <rdf:RDF>
      <cc:Work
         rdf:about="">
        <dc:format>image/svg+xml</dc:format>
        <dc:type
           rdf:resource="http://purl.org/dc/dcmitype/StillImage" />
        <dc:title></dc:title>
      </cc:Work>
    </rdf:RDF>
  </metadata>
  <g
     inkscape:label="Livello 1"
     inkscape:groupmode="layer"
     id="layer1"
     transform="translate(-54.5692,-215.28089)">
    <path
       transform="matrix(1,0,0,-1,-1.5935099e-5,988.23864)"
       style="fill:#000000;fill-opacity:1;stroke:#000000;stroke-width:7;stroke-linecap:round;stroke-linejoin:round;stroke-miterlimit:4;stroke-opacity:1;stroke-dashoffset:0"
       inkscape:transform-center-y="-32.498396"
       d="M 281.71389,631.78473 58.062888,599.28635 219.89828,441.53581 181.69412,218.78851 381.73368,323.95552 581.77321,218.7885 543.56907,441.53582 705.40446,599.28633 481.75344,631.78474 z"
       id="path3787-7"
       inkscape:connector-curvature="0"
       sodipodi:nodetypes="cccccccccc" />
    <path
       style="fill:#000000;fill-opacity:1;stroke:#000000;stroke-width:7;stroke-linecap:round;stroke-linejoin:round;stroke-miterlimit:4;stroke-opacity:1;stroke-dashoffset:0"
       inkscape:transform-center-y="32.498395"
       d="M 381.73368,834.44693 281.71389,631.78473 58.062888,599.28635 219.89828,441.53581 l 323.67079,10e-6 161.83539,157.75051 -223.65102,32.49841 z"
       id="path3787"
       inkscape:connector-curvature="0"
       sodipodi:nodetypes="cccccccc" />
    <path
       id="path3755-7"
       style="fill:#000000;stroke:#000000;stroke-width:6.00588225999999992;stroke-linecap:round;stroke-linejoin:round;stroke-miterlimit:4;stroke-opacity:1;stroke-dashoffset:0;fill-opacity:1;fill-rule:nonzero"
       d="m 447.11388,245.78237 c 87.17344,23.35809 155.26363,91.44832 178.62169,178.62176 36.10844,134.75854 -43.86326,273.27359 -178.6218,309.38203 C 312.35524,769.8946 173.84018,689.9229 137.73175,555.16437 101.62331,420.40583 181.59501,281.89078 316.35354,245.78233 l 6.38481,24.25166 m 0,0 C 201.13984,302.6162 128.97784,427.60437 161.56005,549.2029 194.14224,670.80143 319.13042,742.96342 440.72896,710.38121 562.32748,677.79901 634.48948,552.81083 601.90727,431.21231 580.83029,352.55188 519.38954,291.11109 440.72913,270.03404 l 6.38475,-24.25167" />
    <path
       sodipodi:type="arc"
       style="fill:#ffffff;fill-opacity:1;fill-rule:nonzero;stroke:none"
       id="path3834"
       sodipodi:cx="287.85715"
       sodipodi:cy="303.38812"
       sodipodi:rx="231.71887"
       sodipodi:ry="231.71887"
       d="m 511.68039,243.41486 a 231.71887,231.71887 0 1 1 -0.0551,-0.20527"
       transform="matrix(0.96592583,-0.25881905,0.25881905,0.96592583,25.16238,275.57176)"
       sodipodi:start="6.0213859"
       sodipodi:end="12.303654"
       sodipodi:open="true" />
  </g>
</svg>
