<?xml version="1.0" encoding="UTF-8" standalone="no"?>
<!-- Created with Inkscape (http://www.inkscape.org/) -->

<svg
   xmlns:dc="http://purl.org/dc/elements/1.1/"
   xmlns:cc="http://creativecommons.org/ns#"
   xmlns:rdf="http://www.w3.org/1999/02/22-rdf-syntax-ns#"
   xmlns:svg="http://www.w3.org/2000/svg"
   xmlns="http://www.w3.org/2000/svg"
   xmlns:sodipodi="http://sodipodi.sourceforge.net/DTD/sodipodi-0.dtd"
   xmlns:inkscape="http://www.inkscape.org/namespaces/inkscape"
   width="682.02148"
   height="576.99652"
   id="svg2"
   version="1.1"
   inkscape:version="0.48.5 r10040"
   sodipodi:docname="mastro-elfo-logo.svg">
  <defs
     id="defs4" />
  <sodipodi:namedview
     id="base"
     pagecolor="#ffffff"
     bordercolor="#666666"
     borderopacity="1.0"
     inkscape:pageopacity="0.0"
     inkscape:pageshadow="2"
     inkscape:zoom="0.7"
     inkscape:cx="304.24109"
     inkscape:cy="362.22071"
     inkscape:document-units="px"
     inkscape:current-layer="layer1"
     showgrid="false"
     inkscape:snap-center="true"
     inkscape:object-paths="false"
     inkscape:object-nodes="true"
     inkscape:snap-smooth-nodes="false"
     showguides="true"
     inkscape:guide-bbox="true"
     fit-margin-top="0"
     fit-margin-left="0"
     fit-margin-right="0"
     fit-margin-bottom="0"
     inkscape:window-width="1285"
     inkscape:window-height="744"
     inkscape:window-x="81"
     inkscape:window-y="24"
     inkscape:window-maximized="1" />
  <metadata
     id="metadata7">
    <rdf:RDF>
      <cc:Work
         rdf:about="">
        <dc:format>image/svg+xml</dc:format>
        <dc:type
           rdf:resource="http://purl.org/dc/dcmitype/StillImage" />
        <dc:title />
      </cc:Work>
    </rdf:RDF>
  </metadata>
  <g
     inkscape:label="Livello 1"
     inkscape:groupmode="layer"
     id="layer1"
     transform="translate(-40.697915,-246.91797)">
    <path
       transform="translate(54.5692,215.28089)"
       style="fill:#000000;fill-opacity:1;fill-rule:nonzero;stroke:none"
       inkscape:transform-center-y="-10.44136"
       d="m 529.407,166.46574 138.74322,56.64981 -111.00061,100.6864 69.86967,132.57869 -149.75137,5.78044 L 445.57125,608.63361 327.13945,516.80336 208.70767,608.6336 177.01099,462.16106 27.259638,456.38062 97.129314,323.80191 -13.871285,223.11553 124.87194,166.46571 l -30.346208,74.17056 2.603582,83.16564 24.612196,76.13599 55.26948,62.22316 64.44458,38.29572 85.68388,16.34658 78.10718,-14.43315 72.02128,-40.20913 53.96695,-66.27431 25.91475,-72.08482 1.36798,-90.17315 z"
       id="path3810"
       inkscape:connector-curvature="0"
       sodipodi:nodetypes="ccccccccccccccccccccccccc" />
    <path
       id="path3762-1"
       style="fill:#000000;fill-opacity:1;stroke:none"
       d="M 447.94992,246.91797 C 584.48336,283.502 665.50836,423.84143 628.92435,560.37488 592.34033,696.9083 452.00089,777.93332 315.46745,741.3493 178.93401,704.76527 97.909003,564.42585 134.49302,427.89241 158.15873,339.5708 227.14574,270.58375 315.46733,246.91802 l 8.2469,31.29316 c -77.32576,20.7194 -137.72405,81.11773 -158.44343,158.4435 -32.0294,119.53535 38.90819,242.40285 158.44353,274.43224 119.53535,32.0294 242.40286,-38.9082 274.43225,-158.44352 C 630.17597,433.10804 559.23839,310.24055 439.70305,278.21115 z"
       inkscape:connector-curvature="0"
       sodipodi:nodetypes="csssccssscc" />
  </g>
</svg>
